<svg xmlns="http://www.w3.org/2000/svg" width="146.43" height="87.821" viewBox="0 0 146.43 87.821">
  <g id="Group_315" data-name="Group 315" transform="translate(-1311 -1428)">
    <path id="Icon_ionic-ios-laptop" data-name="Icon ionic-ios-laptop" d="M132.88,85.786v-72.7a5.278,5.278,0,0,0-5.245-5.214H21.03a5.258,5.258,0,0,0-5.245,5.214v72.7H1.118c0,3.019,3.019,5.733,5.763,6.922a40.459,40.459,0,0,0,15,2.988h104.9a40.39,40.39,0,0,0,14.728-2.683c2.9-1.22,6.038-4.086,6.038-7.227H132.88ZM74.333,10.314a1.22,1.22,0,1,1-1.22,1.22A1.223,1.223,0,0,1,74.333,10.314Zm-53.059,4.94H127.391a.612.612,0,0,1,.61.61V80.3a.612.612,0,0,1-.61.61H21.274a.612.612,0,0,1-.61-.61V15.864A.593.593,0,0,1,21.274,15.254ZM87.231,88.225h-25.8a3.633,3.633,0,0,1-2.958-2.287H90.189A3.028,3.028,0,0,1,87.231,88.225Z" transform="translate(1309.882 1420.125)" fill="#4492f7"/>
    <path id="Icon_material-brush" data-name="Icon material-brush" d="M10.5,21A4.494,4.494,0,0,0,6,25.5a3.044,3.044,0,0,1-3,3,7.761,7.761,0,0,0,6,3,6,6,0,0,0,6-6A4.494,4.494,0,0,0,10.5,21ZM31.065,6.945l-2.01-2.01a1.494,1.494,0,0,0-2.115,0L13.5,18.375,17.625,22.5,31.065,9.06a1.494,1.494,0,0,0,0-2.115Z" transform="translate(1383 1453.504)" fill="#4492f7"/>
    <path id="Icon_ionic-md-color-palette" data-name="Icon ionic-md-color-palette" d="M18,4.5a13.5,13.5,0,0,0,0,27,2.21,2.21,0,0,0,2.25-2.25,2.094,2.094,0,0,0-.6-1.5,2.1,2.1,0,0,1-.6-1.5A2.21,2.21,0,0,1,21.3,24H24a7.522,7.522,0,0,0,7.5-7.5C31.5,9.9,25.425,4.5,18,4.5ZM9.75,18A2.25,2.25,0,1,1,12,15.75,2.21,2.21,0,0,1,9.75,18Zm4.5-6A2.25,2.25,0,1,1,16.5,9.75,2.21,2.21,0,0,1,14.25,12Zm7.5,0A2.25,2.25,0,1,1,24,9.75,2.21,2.21,0,0,1,21.75,12Zm4.5,6a2.25,2.25,0,1,1,2.25-2.25A2.21,2.21,0,0,1,26.25,18Z" transform="translate(1353.554 1453.502)" fill="#4492f7"/>
  </g>
</svg>
