<svg xmlns="http://www.w3.org/2000/svg" width="36.089" height="39.819" viewBox="0 0 36.089 39.819">
  <path id="Icon_simple-hackerrank" data-name="Icon simple-hackerrank" d="M19.731,0c2.132,0,16.177,8.107,17.242,9.955s1.07,18.06,0,19.91-15.106,9.955-17.242,9.955-16.177-8.1-17.247-9.955-1.064-18.06,0-19.91S17.6,0,19.731,0Zm3.808,11.28a.429.429,0,0,0-.428.428v6.429H16.351V11.461h1.163a.429.429,0,0,0,.217-.795l-2.608-2.5a.5.5,0,0,0-.375-.181.439.439,0,0,0-.343.178l-2.787,2.509a.428.428,0,0,0,.224.79H13.01l.013,16.649a.419.419,0,0,0,.421.428H15.92a.429.429,0,0,0,.43-.425V21.468h6.758v6.889h-1.16a.424.424,0,0,0-.425.428.431.431,0,0,0,.2.363l2.62,2.505a.5.5,0,0,0,.373.181.438.438,0,0,0,.345-.181l2.786-2.505a.429.429,0,0,0-.224-.791H26.452L26.44,11.709a.426.426,0,0,0-.423-.431H23.538v0Z" transform="translate(-1.686)" fill="#fff"/>
</svg>
